<?xml version="1.0" standalone="no"?>
<!DOCTYPE svg PUBLIC "-//W3C//DTD SVG 20010904//EN"
 "http://www.w3.org/TR/2001/REC-SVG-20010904/DTD/svg10.dtd">
<svg version="1.0" xmlns="http://www.w3.org/2000/svg"
 width="1024.000000pt" height="1024.000000pt" viewBox="0 0 1024.000000 1024.000000"
 preserveAspectRatio="xMidYMid meet">
<metadata>
Created by potrace 1.14, written by Peter Selinger 2001-2017
</metadata>
<g transform="translate(0.000000,1024.000000) scale(0.100000,-0.100000)"
fill="#000000" stroke="none">
<path d="M2405 7500 c-97 -19 -176 -47 -260 -93 -11 -6 -31 -16 -44 -23 -55
-29 -181 -157 -233 -236 -47 -73 -79 -132 -80 -148 0 -3 -8 -26 -18 -51 -40
-101 -41 -142 -38 -1919 4 -1754 4 -1750 39 -1825 6 -12 11 -27 13 -35 8 -50
132 -234 193 -288 109 -97 142 -118 281 -176 139 -58 -9 -56 2884 -56 1584 0
2666 4 2681 9 13 5 44 11 69 14 25 3 60 12 79 21 19 8 52 22 75 30 59 20 171
95 235 157 116 114 185 232 223 388 l26 104 0 1713 c0 1703 0 1713 -21 1796
-11 46 -23 93 -26 106 -3 12 -9 25 -14 28 -5 3 -9 12 -9 20 0 24 -123 206
-166 245 -108 98 -199 151 -339 197 l-80 26 -567 3 -568 4 0 -1228 0 -1228
-25 -128 c-14 -71 -30 -136 -35 -145 -4 -9 -18 -46 -30 -82 -20 -61 -48 -125
-94 -214 -90 -179 -287 -405 -466 -535 -47 -33 -90 -65 -96 -70 -6 -5 -38 -23
-70 -40 -33 -17 -72 -38 -89 -47 -49 -27 -62 -33 -138 -61 -72 -26 -200 -61
-247 -68 -14 -2 -56 -8 -95 -14 -91 -13 -327 -14 -435 -1 -90 11 -265 52 -315
74 -16 8 -41 17 -55 21 -40 11 -200 94 -264 136 -32 21 -60 39 -62 39 -3 0
-30 21 -58 45 -6 6 -27 22 -46 36 -47 35 -189 182 -236 244 -20 28 -40 52 -43
55 -14 11 -88 128 -104 162 -10 20 -21 39 -26 42 -4 3 -13 23 -21 45 -7 23
-17 41 -22 41 -4 0 -8 9 -8 20 0 12 -6 31 -14 43 -8 12 -24 51 -36 87 -12 36
-25 74 -30 85 -5 11 -11 34 -14 50 -3 17 -12 59 -20 95 -31 139 -36 318 -36
1431 l0 1109 -532 -1 c-293 -1 -551 -5 -573 -9z"/>
<path d="M4320 6326 c0 -715 4 -1194 9 -1212 6 -16 12 -45 14 -64 3 -19 7 -42
11 -50 3 -8 11 -28 17 -45 7 -16 13 -32 14 -35 19 -48 31 -70 37 -70 4 0 8 -5
8 -12 0 -35 151 -210 208 -242 10 -5 19 -13 22 -17 13 -19 185 -98 260 -120
110 -31 301 -34 395 -6 202 60 316 128 425 254 59 68 63 74 126 193 13 25 34
79 46 120 l22 75 3 1208 4 1207 -811 0 -810 0 0 -1184z"/>
</g>
</svg>
